# xmcd CD database file
#
# Track frame offsets:
#	150
#	17745
#	29180
#	43265
#	55450
#	80455
#	100027
#	111332
#	133552
#	161715
#	180515
#	201635
#	217960
#	234497
#	249312
#
# Disc length: 3494 seconds
#
# Revision: 0
# Processed by: cddbd v1.5PL3 Copyright (c) Steve Scherf et al.
# Submitted via: CDex 1.51
#
DISCID=d60da40f
DTITLE=井上陽水 - 井上陽水　I
DYEAR=1900
DGENRE=JPop
TTITLE0=断絶
TTITLE1=もしも明日が晴れなら
TTITLE2=感謝しらずの女
TTITLE3=愛は君
TTITLE4=傘がない
TTITLE5=限りない欲望
TTITLE6=家へお帰り
TTITLE7=人生が二度あれば
TTITLE8=夜のバス
TTITLE9=東へ西へ
TTITLE10=紙飛行機
TTITLE11=神無月にかこまれて
TTITLE12=つめたい部屋の世界地図
TTITLE13=いつのまにか少女は
TTITLE14=帰郷（危篤電報を受け取って）
EXTD=
EXTT0=
EXTT1=
EXTT2=
EXTT3=
EXTT4=
EXTT5=
EXTT6=
EXTT7=
EXTT8=
EXTT9=
EXTT10=
EXTT11=
EXTT12=
EXTT13=
EXTT14=
PLAYORDER=
